<?xml version="1.0" encoding="UTF-8" standalone="no"?>
<!-- Created with Inkscape (http://www.inkscape.org/) -->

<svg
   width="14.999601mm"
   height="15.00011mm"
   viewBox="0 0 14.999601 15.00011"
   version="1.1"
   id="svg1"
   xmlns="http://www.w3.org/2000/svg"
   xmlns:svg="http://www.w3.org/2000/svg">
  <defs
     id="defs1" />
  <g
     id="layer1"
     transform="translate(-72.760416,-99.747914)">
    <path
       id="path6"
       style="stroke-width:0.264583"
       d="M 72.760417,99.747917 V 114.74803 H 87.760018 V 99.747917 Z m 6.147428,1.868623 c 1.464464,0 2.656169,1.16059 2.656169,2.58537 0,0.52123 -0.159986,1.00563 -0.433566,1.41283 l 2.074809,1.9513 c 0.302419,-0.17224 0.651926,-0.27233 1.025777,-0.27233 1.125533,0 2.039669,0.89005 2.039669,1.98489 -2.65e-4,1.09564 -0.914136,1.98696 -2.039669,1.98696 v -5.2e-4 c -0.783426,0 -1.464779,-0.43346 -1.806091,-1.06608 l -4.716508,1.09451 c -0.05318,0.88313 -0.806571,1.58594 -1.725993,1.58594 -0.955141,0 -1.732194,-0.75646 -1.732194,-1.68568 0,-0.9308 0.777053,-1.68672 1.732194,-1.68672 0.05398,0 0.108041,0.003 0.161747,0.008 l 1.316716,-3.14761 c -0.726276,-0.46117 -1.208712,-1.25903 -1.208712,-2.16576 0,-1.42504 1.191194,-2.58537 2.655652,-2.58537 z m -5.17e-4,0.97358 c -0.912808,0 -1.654679,0.72384 -1.654679,1.61231 0,0.88789 0.741871,1.61075 1.654679,1.61075 0.912807,0 1.65623,-0.72286 1.65623,-1.61075 0,-0.88847 -0.743423,-1.61231 -1.65623,-1.61231 z m 1.527039,3.7238 c -0.432594,0.29739 -0.959243,0.47336 -1.527039,0.47336 -0.1778,0 -0.352358,-0.0178 -0.520898,-0.0512 l -1.316716,3.14658 c 0.162983,0.12779 0.300331,0.28575 0.406694,0.46302 l 4.715991,-1.09399 c 0.005,-0.3675 0.113511,-0.71067 0.297656,-1.00356 z m 3.796667,1.95389 c -0.572817,0 -1.039213,0.45359 -1.039213,1.01027 0,0.55907 0.46666,1.01286 1.039213,1.01286 0.572559,0 1.039213,-0.45379 1.039213,-1.01286 0,-0.55668 -0.46639,-1.01027 -1.039213,-1.01027 z m -8.249109,2.2133 c -0.403485,0 -0.731221,0.31919 -0.731221,0.7121 0,0.39237 0.327472,0.71159 0.731221,0.71159 0.403225,0 0.731222,-0.31922 0.731222,-0.71159 0,-0.39291 -0.327732,-0.7121 -0.731222,-0.7121 z" />
  </g>
</svg>
