<?xml version="1.0" encoding="UTF-8" standalone="no"?>
<!-- Generator: Adobe Illustrator 16.0.0, SVG Export Plug-In . SVG Version: 6.00 Build 0)  -->

<svg
   version="1.1"
   id="Layer_1"
   x="0px"
   y="0px"
   width="22.676399"
   height="22.677197"
   viewBox="0 0 56.690998 56.692991"
   enable-background="new 0 0 255.118 116.221"
   xml:space="preserve"
   xmlns="http://www.w3.org/2000/svg"
   xmlns:svg="http://www.w3.org/2000/svg"><defs
   id="defs10" />

<g
   id="g10"
   transform="translate(-99.667993,-5.2340016)">
	<path
   fill="#ffffff"
   d="m 111.844,45.8 c -1.525,0 -2.764,1.206 -2.764,2.691 0,1.483 1.238,2.691 2.764,2.691 1.524,0 2.763,-1.208 2.763,-2.691 0,-1.485 -1.238,-2.691 -2.763,-2.691 z"
   id="path6" />
	<path
   fill="#ffffff"
   d="m 122.901,31.839 c -0.672,0 -1.332,-0.067 -1.969,-0.193 l -4.976,11.893 c 0.616,0.483 1.134,1.08 1.536,1.75 l 17.825,-4.134 c 0.019,-1.389 0.429,-2.686 1.125,-3.793 l -7.771,-7.311 c -1.635,1.124 -3.624,1.788 -5.77,1.788 z"
   id="path7" />
	<path
   fill="#ffffff"
   d="m 122.901,28.157 c 3.45,0 6.259,-2.732 6.259,-6.088 0,-3.358 -2.809,-6.092 -6.259,-6.092 -3.45,0 -6.255,2.734 -6.255,6.092 0,3.356 2.805,6.088 6.255,6.088 z"
   id="path8" />
	<path
   fill="#ffffff"
   d="m 99.668,5.234 v 56.693 h 56.691 V 5.234 Z m 43.353,43.53 c -2.961,0 -5.536,-1.639 -6.826,-4.03 L 118.37,48.87 c -0.201,3.338 -3.05,5.994 -6.525,5.994 -3.61,0 -6.547,-2.858 -6.547,-6.37 0,-3.518 2.937,-6.375 6.547,-6.375 0.204,0 0.409,0.01 0.612,0.029 l 4.977,-11.896 c -2.745,-1.743 -4.569,-4.759 -4.569,-8.186 0,-5.386 4.502,-9.771 10.037,-9.771 5.535,0 10.04,4.386 10.04,9.771 0,1.97 -0.606,3.801 -1.64,5.34 l 7.843,7.375 c 1.143,-0.651 2.464,-1.028 3.877,-1.028 4.254,0 7.709,3.364 7.709,7.502 -0.001,4.141 -3.456,7.509 -7.71,7.509 z"
   id="path9" />
	<path
   fill="#ffffff"
   d="m 143.021,37.436 c -2.165,0 -3.928,1.713 -3.928,3.817 0,2.113 1.764,3.828 3.928,3.828 2.164,0 3.928,-1.715 3.928,-3.828 0,-2.104 -1.763,-3.817 -3.928,-3.817 z"
   id="path10" />
</g>
</svg>
